PathFileType	4	(X/Y/Z)	C:/Users/beibeiliu/ov580/test_trc/capture2\sequence.19_training_dense_right.trc
DataRate	CameraRate	NumFrames	NumMarkers	Units	OrigDataRate	OrigDataStartFrame	OrigNumFrames
120	120	14	19	mm	120	176	351
Frame#	Time	ThumbCMC			ThumbMCP			ThumbIP			ThumbTip			IndexMCP			IndexPIP			IndexTip			MiddleMCP			MiddlePIP			MiddleTip			RingMCP			RingPIP			RingTip			PinkyMCP			PinkyPIP			PinkyTip			BackHand1			BackHand2			BackHand3	
		X0	Y0	Z0	X1	Y1	Z1	X2	Y2	Z2	X3	Y3	Z3	X4	Y4	Z4	X5	Y5	Z5	X6	Y6	Z6	X7	Y7	Z7	X8	Y8	Z8	X9	Y9	Z9	X10	Y10	Z10	X11	Y11	Z11	X12	Y12	Z12	X13	Y13	Z13	X14	Y14	Z14	X15	Y15	Z15	X16	Y16	Z16	X17	Y17	Z17	X18	Y18	Z18	
175	1.45833	78.7719	38.8637	58.7765	61.0407	12.8993	63.622	43.9386	-7.31844	60.9648	44.0772	-29.0411	53.1101	67.9731	1.75799	-4.62309	56.7734	-24.1375	-15.8682	52.5235	-55.4388	-8.95753	89.6977	-6.97398	-13.921	82.6024	-41.4374	-20.3349	84.5677	-65.9852	-1.03186	111.71	-13.5292	-12.7178	104.063	-43.8492	-13.8148	98.8965	-61.9211	8.15301	133.9	-14.6027	-4.52971	125.661	-40.8005	-6.27934	114.857	-61.2306	13.553	129.467	32.5546	14.6768	135.058	51.8866	35.3063	101.526	49.376	26.372	
176	1.46667	79.5189	41.9326	60.1968	59.0703	18.6528	65.7371	38.7465	-1.63604	64.1105	37.8142	-24.4518	55.915	65.0949	1.23268	-3.8008	49.0188	-21.4661	-11.8761	43.6652	-48.7713	-7.08331	86.2826	-10.3576	-13.1596	76.3074	-40.1965	-16.4149	74.2069	-66.4244	4.90111	102.682	-15.5189	-9.91925	95.8923	-41.8262	-11.2478	88.5656	-64.8501	15.821	127.65	-17.2808	0.423014	123.126	-45.4218	-0.646062	107.705	-62.1456	20.0436	125.238	25.0058	14.6839	136.791	49.4838	34.8435	101.226	47.2408	29.5579	
177	1.475	78.2184	45.9881	62.5054	56.177	23.9563	69.8598	38.8827	2.5211	63.4787	26.2533	-17.5988	61.2152	57.1747	5.75686	-1.02535	45.7546	-21.4447	-9.96069	37.5409	-46.0459	-4.57255	83.2122	-7.13488	-8.79094	66.513	-38.5064	-13.3399	61.2987	-65.6948	9.53606	102.833	-17.1506	-6.6154	90.6263	-45.1995	-8.13243	78.5225	-63.5803	17.1266	124.766	-20.5391	4.8155	112.358	-45.1317	1.1662	93.3066	-58.8632	24.6874	124.099	27.74	18.123	138.197	46.7815	34.5507	100.897	50.7742	29.8452	
178	1.48333	80.8168	47.8535	60.7	54.099	25.4681	67.273	32.3541	10.655	66.946	21.3679	-10.6457	60.6856	57.3505	10.0488	1.37023	42.3444	-14.7084	-9.67004	30.5345	-42.7623	-3.27783	77.8391	-6.5935	-7.39772	62.8314	-34.0166	-12.9077	52.6251	-62.5538	11.8519	93.8507	-17.9123	-6.14568	85.2711	-45.8186	-5.62154	71.9216	-62.4942	18.4284	116.398	-20.4007	6.77676	104.224	-46.8176	4.2768	87.8941	-61.164	26.6318	121.118	23.4507	18.3394	137.674	42.1227	32.5605	103.097	46.9887	29.0665	
179	1.49167	79.0585	49.276	58.3458	57.0524	30.5619	66.6243	36.9459	17.2027	66.0709	22.2862	-3.52293	59.8125	56.9827	8.36629	-3.04777	36.9097	-10.21	-8.17407	30.6333	-36.3587	-3.99954	76.3524	-4.56672	-7.365	62.2384	-32.8505	-12.0845	48.3953	-57.9726	8.64417	94.3322	-18.7564	-4.60417	74.931	-43.3164	-3.53544	61.5463	-59.3535	21.8706	109.815	-25.1925	6.26861	97.5009	-47.1914	7.22786	78.3956	-59.0954	31.7376	123.444	21.089	18.7593	139.902	39.5976	35.2702	104.336	49.171	28.2727	
180	1.5	83.4339	51.2257	58.7214	58.3857	36.4268	68.6976	34.7046	20.7022	64.2381	16.6525	4.05329	61.0935	59.8103	14.3992	0.408759	38.4682	-8.68574	-9.34207	22.4955	-30.6822	-4.52069	72.7619	-4.44336	-7.29036	54.2812	-28.4709	-10.2275	40.5114	-53.6116	9.34099	87.7195	-13.993	-2.15221	69.6571	-43.6017	-1.09763	55.4249	-55.2187	20.5389	109.176	-23.2507	10.2026	91.6073	-48.3469	10.6695	73.33	-55.7629	35.3245	122.874	17.6045	15.739	142.26	39.5019	35.1312	107.522	50.3481	27.7803	
181	1.50833	84.1332	53.6484	57.9043	57.7611	39.3229	66.3731	36.3829	28.0104	65.1786	19.1604	10.3779	59.0562	57.9546	19.341	-0.363422	36.6767	-2.55229	-8.95084	22.1235	-23.4733	-4.52744	74.4131	-0.988581	-5.97894	52.0195	-24.9074	-10.1222	30.6929	-45.2771	8.80566	89.8591	-15.3675	-1.18007	66.9887	-39.8917	0.133963	46.7701	-47.2411	21.7193	104.979	-26.9962	10.2429	83.6733	-45.1259	14.4722	65.2082	-51.0398	34.4608	121.928	22.2051	19.5309	140.217	37.0889	34.4333	110.325	49.0245	29.7031	
182	1.51667	87.0507	59.2871	57.5232	62.5266	45.858	66.4065	32.5373	33.1448	61.441	16.3262	17.2954	56.7581	56.979	21.8431	-3.65056	37.9856	2.413	-10.2865	22.0898	-17.7158	-5.36473	72.3076	3.429	-5.37169	51.6213	-19.9127	-10.3324	23.6807	-37.4985	8.42029	85.0666	-10.6055	0.25662	60.8585	-35.7312	0.165622	41.9949	-45.3364	24.556	99.1418	-26.1488	10.3459	76.2036	-41.084	15.4556	56.8875	-45.2341	34.6926	121.361	17.8975	16.5024	144.601	31.5377	36.9624	112.827	51.1968	26.3188	
183	1.525	93.0249	59.377	54.7394	62.4355	50.2037	63.1464	36.0239	42.704	60.5954	17.0049	26.3841	55.3003	63.4183	25.2185	-2.30725	37.1614	11.3446	-10.9371	17.1728	-6.42817	-8.25339	72.4258	2.71432	-6.01883	45.4619	-16.5917	-10.5512	21.5327	-31.9203	8.90603	79.8367	-13.056	-2.09641	53.7724	-30.3532	1.19072	33.6108	-36.4017	21.4579	97.3691	-25.7657	14.5969	71.315	-40.178	16.3409	46.7369	-38.1254	36.4718	122.7	15.4187	17.7584	145.447	28.6049	37.2843	114.46	49.5302	25.0996	
184	1.53333	93.4319	64.0317	51.5079	64.5919	55.0352	58.5433	37.4294	48.8959	56.9339	20.933	33.5302	51.6368	60.6307	31.1159	-5.44608	35.7758	15.9057	-13.4957	16.2248	-0.301945	-9.44678	68.8275	6.34786	-8.30958	45.229	-9.23834	-11.0403	14.2071	-21.633	6.6538	77.8048	-7.62061	0.720109	49.3547	-21.3828	-0.540751	26.4836	-29.9469	19.7007	90.683	-20.0361	15.2898	65.6751	-37.7842	16.2853	42.1091	-37.7903	34.1116	120.811	15.8051	20.011	142.014	27.9464	34.7898	117.664	48.3654	25.5696	
185	1.54167	100.691	66.0685	51.0433	69.2966	65.371	59.7298	43.6983	56.9689	54.9767	21.9413	43.6224	49.8726	61.7782	35.1542	-8.24816	39.004	25.6705	-16.0123	11.3141	8.4034	-9.3464	65.0845	14.4504	-11.2178	38.3767	-1.49511	-11.964	12.7966	-8.5321	2.90276	72.0956	-5.92696	-1.84358	49.6925	-17.7195	-1.92498	20.7938	-18.2281	13.9116	86.7273	-16.2456	15.1861	58.4472	-29.5037	13.8863	35.9673	-31.4959	28.9477	118.425	14.4288	17.8196	145.154	24.1208	38.3491	122.158	49.8141	24.4938	
186	1.55	106.919	68.5996	48.8012	73.2784	70.9553	55.1832	45.8933	64.7683	49.5493	24.513	55.233	45.7208	67.4799	41.9185	-9.08507	38.6524	33.8151	-18.1687	12.815	21.8871	-11.9789	68.8213	19.0594	-10.9972	40.3951	9.66386	-16.72	7.37052	3.33181	0.810785	71.84	-3.38104	-2.75477	45.5591	-10.7486	-2.80775	17.6213	-8.42634	10.2536	81.9145	-19.132	13.3599	55.1811	-21.6077	11.6208	29.561	-21.7365	21.1691	120.173	13.8845	19.413	145.211	18.8008	35.8178	122.657	46.5764	18.8983	
187	1.55833	112.836	70.1032	46.1683	78.9927	73.9174	50.1889	52.4227	76.5476	48.2814	28.6147	68.6367	42.8777	71.9868	42.5273	-11.4135	39.7756	41.6013	-22.6116	15.3571	31.4673	-15.8683	69.2736	21.3358	-12.0034	35.4997	17.4736	-17.1545	7.22578	14.3819	-0.089518	69.6159	2.5225	-4.32605	43.6908	-0.910997	-5.71242	12.989	2.18797	9.17213	76.4674	-15.6646	12.4551	48.8219	-19.3204	11.6975	21.6195	-13.5586	19.8098	121.242	9.2323	19.023	142.476	16.1835	34.064	125.607	44.8146	18.4558	
188	1.56667	118.009	69.9621	43.3541	86.3781	83.5576	48.4722	57.2113	83.5332	41.2875	34.5393	79.2557	37.6252	74.5569	48.7261	-16.7177	44.8371	46.2675	-24.769	19.0229	41.4635	-19.9481	69.2394	25.5164	-17.0088	41.1053	18.942	-19.2137	7.77117	24.7084	-1.85524	70.6455	8.20054	-5.34491	42.0772	3.19803	-7.91993	13.0588	10.2987	6.77858	76.0124	-6.66655	11.922	46.8934	-8.81	7.32024	19.2793	-0.651632	15.1836	120.576	9.84597	20.7171	141.62	14.7784	32.8304	132.81	40.0409	19.6859	
